<svg width="64" height="64" viewBox="0 0 64 64" fill="none" xmlns="http://www.w3.org/2000/svg">
  <rect width="64" height="64" rx="12" fill="#000000"/>
  <!-- S -->
  <path d="M13 43.5c0 0 2.8 2.5 7.2 2.5 2.8 0 5-1.2 5-3.8 0-6-13.2-4.2-13.2-12.4 0-4.2 3.8-7 8.8-7 4.4 0 7 2 7 2l-2.2 4.2c0 0-2.4-1.6-5-1.6-2.6 0-4.2 1.2-4.2 3.2 0 5.8 13.2 3.8 13.2 12.4 0 4.4-3.6 7.4-9.2 7.4-5.4 0-8.6-3-8.6-3L13 43.5z" fill="#ffffff"/>
  <!-- W -->
  <path d="M33 23.5h4.6l3 15.6h0.1l3.8-15.6h3.8l3.8 15.6h0.1l3-15.6H60l-5 26h-4.6l-3.8-15.2h-0.1L42.6 49.5H38l-5-26z" fill="#ffffff"/>
</svg>
